<svg width="252" height="64" xmlns="http://www.w3.org/2000/svg" viewBox="0 0 300 90"><g fill="#fff"><path d="M117.965 29.603c0-6.134 3.114-9.54 7.424-9.54 2.194 0 3.63.612 4.23.985.386.226.692.612.692.984v.612c0 .306-.226.532-.465.532-.146 0-.292 0-.453-.16-.532-.373-1.89-1.05-3.78-1.05-3.325 0-5.52 2.487-5.52 7.636 0 5.15 2.262 7.65 5.52 7.65 1.89 0 3.248-.758 3.78-1.063.16-.08.307-.147.453-.147.306 0 .465.226.465.532v.6c0 .385-.306.677-.692.983-.52.386-2.036.984-4.23.984-4.31-.08-7.425-3.405-7.425-9.54zm13.851 5.23c0-2.13 1.37-4.617 5.535-4.617.68 0 1.664.066 2.568.226v-.16c0-2.647-.146-3.925-2.42-3.925-1.584 0-3.327.6-4.085 1.13-.16.08-.226.147-.386.147-.227 0-.453-.146-.453-.453v-.823c0-.306.226-.612.68-.838.984-.533 2.953-.84 4.47-.84 3.712 0 4.085 1.97 4.085 4.777v7.345c0 .678.225.904.677.904v.373c0 .385-.373.917-1.358.917-.68 0-1.21-.386-1.21-1.437v-.24c-.758.838-1.823 1.743-3.86 1.743-2.195-.066-4.244-1.13-4.244-4.23zm8.183.757v-3.565a14.941 14.941 0 00-2.357-.227c-2.793 0-3.925 1.21-3.925 3.034 0 2.115 1.21 2.647 2.795 2.647 1.517-.08 2.874-.905 3.486-1.89zm4.843 2.648v-12.72c0-.306.227-.532.532-.532h.825c.306 0 .53.227.53.532v.452c.68-.226 2.196-1.13 4.298-1.13 1.385 0 2.45.598 2.9 1.356.746-.306 2.954-1.356 4.978-1.356 1.915 0 3.51.984 3.51 4.084v9.314a.524.524 0 01-.53.532h-.85a.527.527 0 01-.535-.532v-9.314c0-1.437-.69-2.274-2.18-2.274-1.598 0-3.778.918-3.778.918v10.67c0 .306-.24.532-.532.532h-.853a.523.523 0 01-.53-.532v-9.314c0-1.437-.667-2.274-2.184-2.274-1.597 0-3.792.918-3.792.918v10.67a.513.513 0 01-.518.532h-.76c-.303.067-.53-.16-.53-.532zm22.552-1.211v1.21a.524.524 0 01-.53.533h-.826a.51.51 0 01-.532-.532V18.706a.51.51 0 01.532-.532h.825c.293 0 .53.227.53.532v8.023c.613-.986 2.05-2.05 3.94-2.05 3.778 0 5.508 3.034 5.508 7.198 0 4.165-1.81 7.185-5.508 7.185-1.89 0-3.405-1.05-3.938-2.036zm7.585-5.15c0-3.857-1.438-5.453-3.647-5.453-2.05 0-3.486 1.437-3.938 2.727v5.457c.533 1.276 1.89 2.714 3.938 2.714 2.21.08 3.646-1.583 3.646-5.442zm4.361 6.361v-12.72c0-.306.242-.532.535-.532h.85c.293 0 .533.227.533.532v.905c1.064-.985 2.396-1.438 3.407-1.438.744 0 1.596.386 1.596 1.064v.983c0 .306-.16.453-.478.453-.16 0-.213 0-.372-.147-.452-.307-.744-.612-1.438-.612-.744 0-1.756.452-2.714 1.29v10.14c0 .305-.24.53-.532.53h-.85c-.294.15-.535-.078-.535-.45zm8.73-16.804c0-.678.53-1.21 1.197-1.21s1.197.532 1.197 1.21c0 .68-.53 1.21-1.197 1.21s-1.198-.452-1.198-1.21zm.213 16.804v-12.72a.51.51 0 01.532-.532h.85a.52.52 0 01.507.532v12.72a.52.52 0 01-.506.532h-.85c-.32.067-.533-.16-.533-.532zm4.017-6.36c0-4.164 1.81-7.198 5.51-7.198 1.915 0 3.406 1.064 3.938 2.05v-8.024c0-.305.238-.532.532-.532h.853c.29 0 .53.227.53.532V36.8c0 .68.214.905.666.905v.373c0 .386-.374.918-1.357.918-.692 0-1.225-.386-1.225-1.437v-.466c-.585.984-2.023 2.048-3.938 2.048-3.7-.08-5.51-3.032-5.51-7.264zm9.554 2.728V29.15c-.532-1.29-1.917-2.727-3.938-2.727-2.21 0-3.646 1.596-3.646 5.454 0 3.86 1.436 5.442 3.646 5.442 1.97.08 3.406-1.357 3.938-2.714zm13.998-10.604c.744 0 1.57.385 1.57 1.063v.985c0 .306-.134.453-.454.453-.158 0-.212 0-.372-.146-.452-.306-.744-.612-1.437-.612-.213 0-.453 0-.745.146.957.84 1.488 2.13 1.488 3.713 0 3.034-2.02 4.923-4.842 4.923-.53 0-.958-.08-1.437-.146-.452.227-.825.76-.825 1.438 0 .678.293 1.13.772 1.357.53-.08 1.118-.146 1.81-.146 3.698 0 5.587 1.662 5.587 4.164 0 2.488-1.89 4.084-5.588 4.084-3.727 0-5.614-1.597-5.614-4.084 0-1.517.69-2.728 2.048-3.406-.532-.466-.745-1.145-.745-1.97 0-.917.37-1.596 1.064-2.128-1.172-.825-1.917-2.262-1.917-4.005 0-3.033 2.05-4.923 4.844-4.923.772 0 1.438.16 2.05.387a3.785 3.785 0 012.742-1.148zm-.533 17.19c0-1.596-1.386-2.355-3.886-2.355-2.502 0-3.832.76-3.832 2.355 0 1.583 1.33 2.34 3.832 2.34 2.5 0 3.885-.757 3.885-2.34zm-1.145-11.59c0-1.888-.984-3.325-3.034-3.325-2.102 0-3.005 1.517-3.005 3.326 0 1.823.903 3.34 3.006 3.34 2.05.066 3.035-1.45 3.035-3.34zm4.018 2.276c0-4.164 2.024-7.198 5.908-7.198 3.3 0 5.056 2.05 5.056 5.455 0 .612-.054 1.29-.213 1.89h-8.94c0 3.34 1.596 5.295 4.63 5.295 1.81 0 3.086-.905 3.617-1.21.16-.067.32-.147.453-.147.24 0 .4.147.4.453v.452c0 .386-.107.612-.533.918-.48.292-1.835 1.21-4.257 1.21-4.096.067-6.12-2.886-6.12-7.118zm9.076-1.29c.08-.373.08-.68.08-.985 0-2.035-1.386-3.246-3.195-3.246-2.634 0-3.618 1.81-3.936 4.15h7.05v.08zm4.549 7.65c-.372-.227-.612-.533-.612-.918v-.68c0-.292.133-.45.453-.45.16 0 .213 0 .373.158.61.373 1.676 1.13 3.485 1.13 1.145 0 2.42-.61 2.42-2.274 0-1.437-.69-2.196-2.713-2.647-1.677-.373-3.646-1.517-3.646-3.938 0-2.423 1.837-3.86 3.938-3.86 1.836 0 2.635.533 3.167.838.48.293.64.532.64.905v.678c0 .308-.106.454-.48.454-.16 0-.213-.066-.37-.146-.535-.386-1.12-1.21-2.876-1.21-1.437 0-2.34.598-2.34 2.114 0 1.064.743 1.97 2.34 2.355 2.34.52 4.152 1.583 4.152 4.15 0 2.662-1.97 4.1-4.312 4.1-1.728.066-3.032-.387-3.617-.76zm10.219 0V18.706a.51.51 0 01.532-.532h.823c.295 0 .533.227.533.532v7.185c.507-.145 2.05-1.13 4.312-1.13 2.34 0 4.02.985 4.02 4.245v9.234c0 .305-.242.53-.534.53h-.85a.524.524 0 01-.533-.53v-9.17c0-1.583-.745-2.42-2.396-2.42-2.206 0-4.018.917-4.018.917v10.67c0 .305-.238.53-.532.53h-.823c-.32.067-.53-.16-.53-.532zm12.934-16.804a1.2 1.2 0 011.222-1.21c.666 0 1.2.532 1.2 1.21 0 .68-.534 1.21-1.2 1.21-.69 0-1.223-.452-1.223-1.21zm.21 16.804v-12.72c0-.306.24-.532.533-.532h.852c.293 0 .532.227.532.532v12.72c0 .306-.24.532-.532.532h-.852c-.292.067-.532-.16-.532-.532zm5.004 0v-12.72c0-.306.24-.532.532-.532h.852c.292 0 .532.227.532.532v.905c1.063-.985 2.396-1.438 3.406-1.438.745 0 1.57.386 1.57 1.064v.983c0 .306-.134.453-.453.453-.16 0-.213 0-.372-.147-.452-.307-.744-.612-1.437-.612-.744 0-1.756.452-2.714 1.29v10.14c0 .305-.24.53-.533.53h-.852c-.292.15-.53-.078-.53-.45zm7.823-6.36c0-4.164 2.022-7.198 5.882-7.198 3.27 0 5.08 2.05 5.08 5.455 0 .612-.08 1.29-.238 1.89h-8.915c0 3.34 1.597 5.295 4.604 5.295 1.836 0 3.112-.905 3.646-1.21.16-.067.293-.147.426-.147.24 0 .4.147.4.453v.452c0 .386-.08.612-.533.918-.454.292-1.81 1.21-4.232 1.21-4.153.067-6.12-2.886-6.12-7.118zm9.048-1.29c.106-.373.106-.68.106-.985 0-2.035-1.384-3.246-3.192-3.246-2.66 0-3.62 1.81-3.938 4.15h7.025v.08zm-159.09 26.264c0-6.146 3.114-9.553 7.424-9.553 2.194 0 3.63.638 4.23 1.01.386.214.692.586.692.958v.64c0 .292-.226.532-.465.532-.146 0-.292 0-.453-.16-.532-.373-1.89-1.064-3.78-1.064-3.325 0-5.52 2.5-5.52 7.637s2.262 7.637 5.52 7.637c1.89 0 3.248-.744 3.78-1.063.16-.053.307-.133.453-.133.306 0 .465.238.465.53v.614c0 .372-.306.665-.692.957-.52.4-2.036 1.012-4.23 1.012-4.31-.108-7.425-3.41-7.425-9.555zm13.558 2.261c0-4.23 2.116-7.184 6.054-7.184s6.054 2.95 6.054 7.183c0 4.26-2.115 7.186-6.053 7.186-4.018 0-6.054-2.928-6.054-7.187zm10.22 0c0-3.54-1.598-5.428-4.166-5.428-2.58 0-4.165 1.89-4.165 5.428 0 3.566 1.583 5.456 4.165 5.456 2.568.08 4.165-1.89 4.165-5.457zm4.23 2.874V52.78c0-.32.227-.53.533-.53h.837c.292 0 .518.21.518.53v9.154c0 1.596.76 2.395 2.423 2.395 1.065 0 2.662-.586 4.02-1.81v-9.74c0-.32.24-.53.53-.53h.825c.32 0 .533.21.533.53v11.283c0 .665.212.905.692.905v.372c0 .372-.372.904-1.384.904-.665 0-1.197-.372-1.197-1.437v-.48c-1.437 1.305-3.165 1.917-4.617 1.917-2.048 0-3.71-.983-3.71-4.257zm13.305 3.513V52.78c0-.32.24-.53.532-.53h.852c.318 0 .532.21.532.53v.427c.532-.134 2.02-1.118 4.31-1.118 2.342 0 3.992.983 3.992 4.23v9.232c0 .32-.213.532-.505.532h-.824c-.32 0-.532-.212-.532-.532V56.4c0-1.598-.77-2.422-2.45-2.422-2.18 0-3.99.903-3.99.903v10.672c0 .32-.213.532-.53.532h-.853c-.292 0-.532-.21-.532-.584zm13.412-1.384v-10.27h-1.065a.534.534 0 01-.532-.533v-.478c0-.294.24-.533.532-.533h1.065v-2.794c0-.293.21-.506.53-.506h.853c.29 0 .533.213.533.506v2.794h2.102c.29 0 .533.24.533.533v.478c0 .292-.24.532-.532.532h-2.102v9.82c0 .61.372.984.903.984.53 0 .744-.08 1.038-.162.16-.052.292-.16.45-.16.242 0 .32.16.32.4v.373c0 .4-.16.612-.372.772-.64.292-1.064.426-2.21.426-1.14-.133-2.046-.798-2.046-2.182zm11.07 8.329c-1.305 0-3.353-.292-3.353-.984v-.904c0-.318.16-.452.477-.452.134 0 .428.134.8.24.48.133 1.064.292 1.97.292 2.607 0 3.884-.984 3.884-4.39V64.97c-.53.132-2.048 1.115-4.31 1.115-2.344 0-4.02-.983-4.02-4.23V52.62c0-.318.24-.53.507-.53h.852c.317 0 .53.212.53.53v9.154c0 1.598.747 2.422 2.423 2.422 2.21 0 4.018-.904 4.018-.904V52.62c0-.318.213-.53.532-.53h.826c.293 0 .532.212.532.53v13.785c-.08 5.056-3.275 6.04-5.67 6.04zm11.788-15.593c0-6.146 3.112-9.553 7.425-9.553 2.18 0 3.618.638 4.23 1.01.4.214.692.586.692.958v.64c0 .292-.24.532-.454.532-.158 0-.318 0-.478-.16-.505-.373-1.862-1.064-3.778-1.064-3.247 0-5.508 2.5-5.508 7.637s2.26 7.637 5.508 7.637a7.154 7.154 0 003.778-1.063c.16-.053.32-.133.48-.133.293 0 .453.238.453.53v.614c0 .372-.293.665-.692.957-.506.4-2.05 1.012-4.23 1.012-4.313-.108-7.425-3.41-7.425-9.555zm13.544 2.261c0-4.23 2.13-7.184 6.067-7.184s6.066 2.95 6.066 7.183c0 4.26-2.13 7.186-6.067 7.186-4.02 0-6.068-2.928-6.068-7.187zm10.218 0c0-3.54-1.596-5.428-4.15-5.428-2.58 0-4.15 1.89-4.15 5.428 0 3.566 1.57 5.456 4.15 5.456 2.554.08 4.15-1.89 4.15-5.457zm4.258 2.874V52.78c0-.32.213-.53.532-.53h.825c.292 0 .53.21.53.53v9.154c0 1.596.747 2.395 2.422 2.395 1.065 0 2.662-.586 3.993-1.81v-9.74c0-.32.238-.53.53-.53h.854c.29 0 .532.21.532.53v11.283c0 .665.212.905.665.905v.372c0 .372-.372.904-1.356.904-.692 0-1.224-.372-1.224-1.437v-.48c-1.438 1.305-3.168 1.917-4.604 1.917-2.048 0-3.698-.983-3.698-4.257zm13.305 3.513V52.78c0-.32.24-.53.53-.53h.854c.293 0 .532.21.532.53v.427c.53-.134 2.022-1.118 4.31-1.118 2.343 0 3.99.983 3.99 4.23v9.232c0 .32-.212.532-.53.532h-.824a.518.518 0 01-.534-.532V56.4c0-1.598-.77-2.422-2.42-2.422-2.183 0-3.992.903-3.992.903v10.672c0 .32-.24.532-.532.532h-.853c-.292 0-.532-.21-.532-.584zm12.561-6.387c0-4.47 2.448-7.184 6.067-7.184 1.757 0 3.087.478 3.62.85.478.293.638.587.638.958v.532c0 .32-.16.48-.398.48-.134 0-.293-.107-.454-.16-.53-.32-1.81-.986-3.245-.986-2.66 0-4.416 1.89-4.416 5.51 0 3.645 1.703 5.535 4.417 5.535 1.438 0 2.795-.587 3.246-.986.16-.08.32-.134.454-.134.238 0 .398.134.398.426v.532c0 .373-.238.693-.638 1.012-.533.373-1.863.8-3.62.8-3.618 0-6.066-2.636-6.066-7.187zm12.186-10.429c0-.693.533-1.225 1.225-1.225s1.225.53 1.225 1.224c0 .69-.533 1.223-1.225 1.223s-1.224-.48-1.224-1.223zm.32 16.816V52.78c0-.32.213-.53.532-.53h.823c.293 0 .533.21.533.53V65.5c0 .293-.24.533-.533.533h-.823c-.372.052-.53-.16-.53-.533zm4.896 0V45.97c0-.32.24-.533.533-.533h.85c.293 0 .532.212.532.532V65.5c0 .293-.24.533-.533.533h-.85c-.294.052-.534-.16-.534-.533zM95.786 18.254c-.824-.838-1.356-.838-2.195 0L81.11 30.748c-.758.745-1.97.745-2.808 0L65.97 18.254c-.84-.838-1.358-.838-2.196 0L51.28 30.748c-.758.745-1.968.745-2.794 0L36.073 18.254c-.838-.838-1.357-.838-2.195 0l-13.85 13.85v15.594L33.57 34.153c.758-.758 1.968-.758 2.807 0l12.48 12.48c.837.825 1.37.825 2.194 0l12.494-12.48c.76-.758 1.97-.758 2.794 0l12.493 12.48c.838.825 1.37.825 2.196 0l12.494-12.48c.76-.758 1.97-.758 2.794 0l13.558 13.545V32.104l-14.09-13.85z"/><path d="M95.786 37.852c-.824-.825-1.356-.825-2.195 0l-12.48 12.48c-.758.772-1.97.772-2.808 0l-12.48-12.48c-.838-.825-1.37-.825-2.195 0l-12.493 12.48c-.758.772-1.97.772-2.794 0L35.847 37.85c-.838-.825-1.37-.825-2.195 0L19.8 51.716V67.31l13.544-13.57c.758-.745 1.97-.745 2.808 0l12.48 12.506c.838.826 1.37.826 2.195 0L63.32 53.74c.76-.745 1.97-.745 2.795 0l12.493 12.506c.838.826 1.357.826 2.196 0L93.297 53.74c.758-.745 1.97-.745 2.794 0l13.56 13.57V51.716L95.786 37.852z"/></g></svg>