<svg width="216" height="52" viewBox="0 0 216 52" fill="none" xmlns="http://www.w3.org/2000/svg">
<path d="M5.87601 7.95004V3.60804H9.69801C10.062 3.60804 10.4087 3.6427 10.738 3.71204C11.0847 3.76404 11.388 3.86804 11.648 4.02404C11.908 4.18004 12.116 4.3967 12.272 4.67404C12.428 4.95137 12.506 5.3067 12.506 5.74004C12.506 6.52004 12.272 7.08337 11.804 7.43004C11.336 7.7767 10.738 7.95004 10.01 7.95004H5.87601ZM1.79401 0.436035V19H10.79C11.622 19 12.428 18.896 13.208 18.688C14.0053 18.48 14.7073 18.1594 15.314 17.726C15.938 17.2927 16.432 16.738 16.796 16.062C17.16 15.3687 17.342 14.554 17.342 13.618C17.342 12.4567 17.056 11.4687 16.484 10.654C15.9293 9.82204 15.08 9.24137 13.936 8.91204C14.768 8.51337 15.392 8.00204 15.808 7.37804C16.2413 6.75404 16.458 5.97404 16.458 5.03804C16.458 4.17137 16.3107 3.44337 16.016 2.85403C15.7387 2.2647 15.34 1.7967 14.82 1.45004C14.3 1.08604 13.676 0.826035 12.948 0.670035C12.22 0.514035 11.414 0.436035 10.53 0.436035H1.79401ZM5.87601 15.828V10.732H10.322C11.206 10.732 11.9167 10.94 12.454 11.356C12.9913 11.7547 13.26 12.4307 13.26 13.384C13.26 13.8694 13.1733 14.268 13 14.58C12.844 14.892 12.6273 15.1434 12.35 15.334C12.0727 15.5074 11.752 15.6374 11.388 15.724C11.024 15.7934 10.6427 15.828 10.244 15.828H5.87601Z" fill="white"/>
<path d="M32.3206 19V5.55804H28.6286V12.604C28.6286 13.9734 28.4033 14.9614 27.9526 15.568C27.502 16.1574 26.774 16.452 25.7686 16.452C24.8846 16.452 24.2693 16.1834 23.9226 15.646C23.576 15.0914 23.4026 14.2594 23.4026 13.15V5.55804H19.7106V13.826C19.7106 14.658 19.78 15.4207 19.9186 16.114C20.0746 16.79 20.3346 17.3707 20.6986 17.856C21.0626 18.324 21.5566 18.688 22.1806 18.948C22.822 19.208 23.6366 19.338 24.6246 19.338C25.4046 19.338 26.1673 19.1647 26.9126 18.818C27.658 18.4714 28.2646 17.908 28.7326 17.128H28.8106V19H32.3206Z" fill="white"/>
<path d="M44.2748 10.29H47.8888C47.8368 9.42337 47.6288 8.67804 47.2648 8.05404C46.9008 7.4127 46.4241 6.88404 45.8348 6.46804C45.2628 6.0347 44.6041 5.71404 43.8588 5.50603C43.1308 5.29804 42.3681 5.19404 41.5708 5.19404C40.4788 5.19404 39.5081 5.37604 38.6588 5.74004C37.8094 6.10404 37.0901 6.61537 36.5008 7.27404C35.9114 7.91537 35.4608 8.6867 35.1488 9.58804C34.8541 10.472 34.7068 11.434 34.7068 12.474C34.7068 13.4794 34.8714 14.4067 35.2008 15.256C35.5301 16.088 35.9894 16.8074 36.5788 17.414C37.1681 18.0207 37.8788 18.4974 38.7108 18.844C39.5601 19.1734 40.4874 19.338 41.4928 19.338C43.2781 19.338 44.7428 18.87 45.8868 17.934C47.0308 16.998 47.7241 15.6374 47.9668 13.852H44.4048C44.2834 14.684 43.9801 15.3514 43.4948 15.854C43.0268 16.3394 42.3508 16.582 41.4668 16.582C40.8948 16.582 40.4094 16.452 40.0108 16.192C39.6121 15.932 39.2914 15.6027 39.0488 15.204C38.8234 14.788 38.6588 14.3287 38.5548 13.826C38.4508 13.3234 38.3988 12.8294 38.3988 12.344C38.3988 11.8414 38.4508 11.3387 38.5548 10.836C38.6588 10.316 38.8321 9.84804 39.0748 9.43204C39.3348 8.9987 39.6641 8.65204 40.0628 8.39204C40.4614 8.1147 40.9554 7.97604 41.5448 7.97604C43.1221 7.97604 44.0321 8.74737 44.2748 10.29Z" fill="white"/>
<path d="M50.3904 0.436035V19H54.0824V14.372L55.5124 12.994L59.2044 19H63.6764L58.0344 10.498L63.1044 5.55804H58.7364L54.0824 10.394V0.436035H50.3904Z" fill="white"/>
<path d="M68.7781 3.47804V0.436035H65.0861V3.47804H68.7781ZM65.0861 5.55804V19H68.7781V5.55804H65.0861Z" fill="white"/>
<path d="M71.6853 5.55804V19H75.3773V11.954C75.3773 10.5847 75.6026 9.60537 76.0533 9.01604C76.5039 8.40937 77.2319 8.10604 78.2373 8.10604C79.1213 8.10604 79.7366 8.38337 80.0833 8.93804C80.4299 9.47537 80.6033 10.2987 80.6033 11.408V19H84.2953V10.732C84.2953 9.90004 84.2173 9.14604 84.0613 8.47004C83.9226 7.7767 83.6713 7.19604 83.3073 6.72803C82.9433 6.2427 82.4406 5.87004 81.7993 5.61003C81.1753 5.3327 80.3693 5.19404 79.3813 5.19404C78.6013 5.19404 77.8386 5.37604 77.0933 5.74004C76.3479 6.0867 75.7413 6.65004 75.2733 7.43004H75.1953V5.55804H71.6853Z" fill="white"/>
<path d="M93.3634 15.828C92.7914 15.828 92.3147 15.7067 91.9334 15.464C91.552 15.2214 91.24 14.9094 90.9974 14.528C90.772 14.1467 90.6074 13.722 90.5034 13.254C90.4167 12.7687 90.3734 12.2834 90.3734 11.798C90.3734 11.2954 90.4254 10.8187 90.5294 10.368C90.6507 9.90004 90.8327 9.4927 91.0754 9.14604C91.3354 8.78204 91.6474 8.49604 92.0114 8.28804C92.3927 8.08004 92.8434 7.97604 93.3634 7.97604C93.97 7.97604 94.4727 8.0887 94.8714 8.31404C95.27 8.53937 95.5907 8.8427 95.8334 9.22404C96.076 9.60537 96.2494 10.0474 96.3534 10.55C96.4574 11.0354 96.5094 11.5554 96.5094 12.11C96.5094 12.5954 96.44 13.0634 96.3014 13.514C96.18 13.9474 95.9894 14.3374 95.7294 14.684C95.4694 15.0307 95.14 15.308 94.7414 15.516C94.3427 15.724 93.8834 15.828 93.3634 15.828ZM100.019 18.142V5.55804H96.5094V7.35204H96.4574C96.0067 6.57204 95.4434 6.01737 94.7674 5.68804C94.1087 5.3587 93.3374 5.19404 92.4534 5.19404C91.5174 5.19404 90.6854 5.37604 89.9574 5.74004C89.2467 6.10404 88.6487 6.59804 88.1634 7.22204C87.678 7.8287 87.3054 8.53937 87.0454 9.35404C86.8027 10.1514 86.6814 10.9834 86.6814 11.85C86.6814 12.7687 86.7854 13.644 86.9934 14.476C87.2187 15.2907 87.5654 16.01 88.0334 16.634C88.5014 17.2407 89.0994 17.726 89.8274 18.09C90.5554 18.4367 91.422 18.61 92.4274 18.61C93.242 18.61 94.0134 18.4454 94.7414 18.116C95.4867 17.7694 96.0587 17.2407 96.4574 16.53H96.5094V18.298C96.5267 19.2514 96.2927 20.04 95.8074 20.664C95.3394 21.288 94.5854 21.6 93.5454 21.6C92.8867 21.6 92.306 21.4614 91.8034 21.184C91.3007 20.924 90.9627 20.4474 90.7894 19.754H87.1234C87.1754 20.5167 87.3834 21.1667 87.7474 21.704C88.1287 22.2587 88.5967 22.7094 89.1514 23.056C89.7234 23.4027 90.3474 23.654 91.0234 23.81C91.7167 23.9834 92.3927 24.07 93.0514 24.07C94.594 24.07 95.8247 23.862 96.7434 23.446C97.662 23.03 98.364 22.5187 98.8494 21.912C99.3347 21.3227 99.6467 20.6814 99.7854 19.988C99.9414 19.2947 100.019 18.6794 100.019 18.142Z" fill="white"/>
<path d="M102.992 0.436035V19H106.684V11.954C106.684 10.5847 106.909 9.60537 107.36 9.01604C107.811 8.40937 108.539 8.10604 109.544 8.10604C110.428 8.10604 111.043 8.38337 111.39 8.93804C111.737 9.47537 111.91 10.2987 111.91 11.408V19H115.602V10.732C115.602 9.90004 115.524 9.14604 115.368 8.47004C115.229 7.7767 114.978 7.19604 114.614 6.72803C114.25 6.2427 113.747 5.87004 113.106 5.61003C112.482 5.3327 111.676 5.19404 110.688 5.19404C109.995 5.19404 109.284 5.37604 108.556 5.74004C107.828 6.0867 107.23 6.65004 106.762 7.43004H106.684V0.436035H102.992Z" fill="white"/>
<path d="M118.248 9.69204C118.3 8.82537 118.517 8.10604 118.898 7.53404C119.279 6.96204 119.765 6.5027 120.354 6.15604C120.943 5.80937 121.602 5.5667 122.33 5.42804C123.075 5.27204 123.821 5.19404 124.566 5.19404C125.242 5.19404 125.927 5.24604 126.62 5.35004C127.313 5.4367 127.946 5.6187 128.518 5.89604C129.09 6.17337 129.558 6.56337 129.922 7.06604C130.286 7.55137 130.468 8.20137 130.468 9.01604V16.01C130.468 16.6167 130.503 17.1974 130.572 17.752C130.641 18.3067 130.763 18.7227 130.936 19H127.192C127.123 18.792 127.062 18.584 127.01 18.376C126.975 18.1507 126.949 17.9254 126.932 17.7C126.343 18.3067 125.649 18.7314 124.852 18.974C124.055 19.2167 123.24 19.338 122.408 19.338C121.767 19.338 121.169 19.26 120.614 19.104C120.059 18.948 119.574 18.7054 119.158 18.376C118.742 18.0467 118.413 17.6307 118.17 17.128C117.945 16.6254 117.832 16.0274 117.832 15.334C117.832 14.5714 117.962 13.9474 118.222 13.462C118.499 12.9594 118.846 12.5607 119.262 12.266C119.695 11.9714 120.181 11.7547 120.718 11.616C121.273 11.46 121.827 11.3387 122.382 11.252C122.937 11.1654 123.483 11.096 124.02 11.044C124.557 10.992 125.034 10.914 125.45 10.81C125.866 10.706 126.195 10.5587 126.438 10.368C126.681 10.16 126.793 9.86537 126.776 9.48404C126.776 9.08537 126.707 8.77337 126.568 8.54804C126.447 8.30537 126.273 8.12337 126.048 8.00204C125.84 7.86337 125.589 7.7767 125.294 7.74204C125.017 7.69004 124.713 7.66404 124.384 7.66404C123.656 7.66404 123.084 7.82004 122.668 8.13204C122.252 8.44404 122.009 8.96404 121.94 9.69204H118.248ZM126.776 12.422C126.62 12.5607 126.421 12.6734 126.178 12.76C125.953 12.8294 125.701 12.89 125.424 12.942C125.164 12.994 124.887 13.0374 124.592 13.072C124.297 13.1067 124.003 13.15 123.708 13.202C123.431 13.254 123.153 13.3234 122.876 13.41C122.616 13.4967 122.382 13.618 122.174 13.774C121.983 13.9127 121.827 14.0947 121.706 14.32C121.585 14.5454 121.524 14.8314 121.524 15.178C121.524 15.5074 121.585 15.7847 121.706 16.01C121.827 16.2354 121.992 16.4174 122.2 16.556C122.408 16.6774 122.651 16.764 122.928 16.816C123.205 16.868 123.491 16.894 123.786 16.894C124.514 16.894 125.077 16.7727 125.476 16.53C125.875 16.2874 126.169 16.0014 126.36 15.672C126.551 15.3254 126.663 14.9787 126.698 14.632C126.75 14.2854 126.776 14.008 126.776 13.8V12.422Z" fill="white"/>
<path d="M133.438 5.55804V19H137.13V11.2C137.13 10.5414 137.225 10.0127 137.416 9.61403C137.606 9.19803 137.832 8.88604 138.092 8.67804C138.369 8.4527 138.646 8.30537 138.924 8.23604C139.218 8.14937 139.452 8.10604 139.626 8.10604C140.215 8.10604 140.657 8.21004 140.952 8.41804C141.264 8.6087 141.48 8.8687 141.602 9.19804C141.74 9.52737 141.818 9.89137 141.836 10.29C141.853 10.6714 141.862 11.0614 141.862 11.46V19H145.554V11.512C145.554 11.096 145.58 10.6887 145.632 10.29C145.701 9.87403 145.822 9.51004 145.996 9.19804C146.186 8.8687 146.438 8.6087 146.75 8.41804C147.079 8.21004 147.504 8.10604 148.024 8.10604C148.544 8.10604 148.951 8.1927 149.246 8.36604C149.558 8.53937 149.792 8.77337 149.948 9.06804C150.104 9.3627 150.199 9.70937 150.234 10.108C150.268 10.5067 150.286 10.9314 150.286 11.382V19H153.978V10.004C153.978 9.13737 153.856 8.4007 153.614 7.79404C153.371 7.17004 153.033 6.66737 152.6 6.28604C152.166 5.9047 151.646 5.62737 151.04 5.45404C150.433 5.2807 149.774 5.19404 149.064 5.19404C148.128 5.19404 147.313 5.41937 146.62 5.87004C145.944 6.3207 145.406 6.8407 145.008 7.43004C144.644 6.59804 144.106 6.01737 143.396 5.68804C142.702 5.3587 141.931 5.19404 141.082 5.19404C140.198 5.19404 139.409 5.3847 138.716 5.76604C138.04 6.14737 137.459 6.6847 136.974 7.37804H136.922V5.55804H133.438Z" fill="white"/>
<path d="M159.756 14.632H156.246C156.281 15.5334 156.48 16.2874 156.844 16.894C157.226 17.4834 157.702 17.96 158.274 18.324C158.864 18.688 159.531 18.948 160.276 19.104C161.022 19.26 161.784 19.338 162.564 19.338C163.327 19.338 164.072 19.26 164.8 19.104C165.546 18.9654 166.204 18.714 166.776 18.35C167.348 17.986 167.808 17.5094 168.154 16.92C168.518 16.3134 168.7 15.568 168.7 14.684C168.7 14.06 168.579 13.54 168.336 13.124C168.094 12.6907 167.773 12.3354 167.374 12.058C166.976 11.7634 166.516 11.5294 165.996 11.356C165.494 11.1827 164.974 11.0354 164.436 10.914C163.916 10.7927 163.405 10.68 162.902 10.576C162.4 10.472 161.949 10.3594 161.55 10.238C161.169 10.0994 160.857 9.92603 160.614 9.71803C160.372 9.51003 160.25 9.24137 160.25 8.91204C160.25 8.6347 160.32 8.41804 160.458 8.26204C160.597 8.0887 160.762 7.9587 160.952 7.87204C161.16 7.78537 161.386 7.73337 161.628 7.71604C161.871 7.68137 162.096 7.66404 162.304 7.66404C162.963 7.66404 163.535 7.79404 164.02 8.05404C164.506 8.2967 164.774 8.77337 164.826 9.48404H168.336C168.267 8.65204 168.05 7.96737 167.686 7.43004C167.34 6.87537 166.898 6.43337 166.36 6.10404C165.823 5.7747 165.208 5.5407 164.514 5.40204C163.838 5.26337 163.136 5.19404 162.408 5.19404C161.68 5.19404 160.97 5.26337 160.276 5.40204C159.583 5.52337 158.959 5.7487 158.404 6.07804C157.85 6.39004 157.399 6.82337 157.052 7.37804C156.723 7.9327 156.558 8.64337 156.558 9.51004C156.558 10.0994 156.68 10.602 156.922 11.018C157.165 11.4167 157.486 11.7547 157.884 12.032C158.283 12.292 158.734 12.5087 159.236 12.682C159.756 12.838 160.285 12.9767 160.822 13.098C162.14 13.3754 163.162 13.6527 163.89 13.93C164.636 14.2074 165.008 14.6234 165.008 15.178C165.008 15.5074 164.93 15.7847 164.774 16.01C164.618 16.218 164.419 16.3914 164.176 16.53C163.951 16.6514 163.691 16.7467 163.396 16.816C163.119 16.868 162.85 16.894 162.59 16.894C162.226 16.894 161.871 16.8507 161.524 16.764C161.195 16.6774 160.9 16.5474 160.64 16.374C160.38 16.1834 160.164 15.9494 159.99 15.672C159.834 15.3774 159.756 15.0307 159.756 14.632Z" fill="white"/>
<path d="M170.861 0.436035V19H174.553V11.954C174.553 10.5847 174.778 9.60537 175.229 9.01604C175.68 8.40937 176.408 8.10604 177.413 8.10604C178.297 8.10604 178.912 8.38337 179.259 8.93804C179.606 9.47537 179.779 10.2987 179.779 11.408V19H183.471V10.732C183.471 9.90004 183.393 9.14604 183.237 8.47004C183.098 7.7767 182.847 7.19604 182.483 6.72803C182.119 6.2427 181.616 5.87004 180.975 5.61003C180.351 5.3327 179.545 5.19404 178.557 5.19404C177.864 5.19404 177.153 5.37604 176.425 5.74004C175.697 6.0867 175.099 6.65004 174.631 7.43004H174.553V0.436035H170.861Z" fill="white"/>
<path d="M190.069 3.47804V0.436035H186.377V3.47804H190.069ZM186.377 5.55804V19H190.069V5.55804H186.377Z" fill="white"/>
<path d="M192.976 5.55804V19H196.668V12.942C196.668 12.3354 196.729 11.772 196.85 11.252C196.972 10.732 197.171 10.2814 197.448 9.90004C197.743 9.50137 198.124 9.18937 198.592 8.96404C199.06 8.7387 199.632 8.62604 200.308 8.62604C200.534 8.62604 200.768 8.64337 201.01 8.67804C201.253 8.69537 201.461 8.72137 201.634 8.75604V5.32404C201.34 5.23737 201.071 5.19404 200.828 5.19404C200.36 5.19404 199.91 5.26337 199.476 5.40204C199.043 5.5407 198.636 5.74004 198.254 6.00004C197.873 6.2427 197.535 6.54604 197.24 6.91004C196.946 7.2567 196.712 7.63804 196.538 8.05404H196.486V5.55804H192.976Z" fill="white"/>
<path d="M211.673 10.836H205.667C205.684 10.576 205.736 10.2814 205.823 9.95204C205.927 9.6227 206.091 9.3107 206.317 9.01604C206.559 8.72137 206.871 8.4787 207.253 8.28804C207.651 8.08004 208.145 7.97604 208.735 7.97604C209.636 7.97604 210.303 8.2187 210.737 8.70404C211.187 9.18937 211.499 9.90004 211.673 10.836ZM205.667 13.176H215.365C215.434 12.136 215.347 11.1394 215.105 10.186C214.862 9.2327 214.463 8.38337 213.909 7.63804C213.371 6.8927 212.678 6.30337 211.829 5.87004C210.979 5.41937 209.983 5.19404 208.839 5.19404C207.816 5.19404 206.88 5.37604 206.031 5.74004C205.199 6.10404 204.479 6.6067 203.873 7.24804C203.266 7.87204 202.798 8.61737 202.469 9.48404C202.139 10.3507 201.975 11.2867 201.975 12.292C201.975 13.332 202.131 14.2854 202.443 15.152C202.772 16.0187 203.231 16.764 203.821 17.388C204.41 18.012 205.129 18.4974 205.979 18.844C206.828 19.1734 207.781 19.338 208.839 19.338C210.364 19.338 211.664 18.9914 212.739 18.298C213.813 17.6047 214.611 16.452 215.131 14.84H211.881C211.759 15.256 211.43 15.6547 210.893 16.036C210.355 16.4 209.714 16.582 208.969 16.582C207.929 16.582 207.131 16.3134 206.577 15.776C206.022 15.2387 205.719 14.372 205.667 13.176Z" fill="white"/>
<path d="M14.17 38.676H18.122C18.0007 37.6014 17.706 36.648 17.238 35.816C16.77 34.984 16.172 34.2907 15.444 33.736C14.7333 33.164 13.9187 32.7307 13 32.436C12.0987 32.1414 11.1367 31.994 10.114 31.994C8.69267 31.994 7.41001 32.2454 6.26601 32.748C5.13934 33.2507 4.18601 33.944 3.40601 34.828C2.62601 35.712 2.02801 36.752 1.61201 37.948C1.19601 39.1267 0.988007 40.4094 0.988007 41.796C0.988007 43.148 1.19601 44.4134 1.61201 45.592C2.02801 46.7534 2.62601 47.7674 3.40601 48.634C4.18601 49.5007 5.13934 50.1854 6.26601 50.688C7.41001 51.1734 8.69267 51.416 10.114 51.416C11.258 51.416 12.3067 51.2427 13.26 50.896C14.2133 50.5494 15.0453 50.0467 15.756 49.388C16.4667 48.7294 17.0387 47.932 17.472 46.996C17.9053 46.06 18.174 45.0114 18.278 43.85H14.326C14.17 45.098 13.7367 46.1034 13.026 46.866C12.3327 47.6287 11.362 48.01 10.114 48.01C9.19534 48.01 8.41534 47.8367 7.77401 47.49C7.13267 47.126 6.61267 46.6494 6.21401 46.06C5.81534 45.4707 5.52067 44.812 5.33001 44.084C5.15667 43.3387 5.07001 42.576 5.07001 41.796C5.07001 40.9814 5.15667 40.1927 5.33001 39.43C5.52067 38.6674 5.81534 37.9914 6.21401 37.402C6.61267 36.7954 7.13267 36.3187 7.77401 35.972C8.41534 35.608 9.19534 35.426 10.114 35.426C10.6167 35.426 11.0933 35.5127 11.544 35.686C12.012 35.842 12.428 36.0674 12.792 36.362C13.156 36.6567 13.4593 37.0034 13.702 37.402C13.9447 37.7834 14.1007 38.208 14.17 38.676Z" fill="white"/>
<path d="M23.9515 44.292C23.9515 43.7547 24.0035 43.226 24.1075 42.706C24.2115 42.186 24.3848 41.7267 24.6275 41.328C24.8875 40.9294 25.2255 40.6087 25.6415 40.366C26.0575 40.106 26.5775 39.976 27.2015 39.976C27.8255 39.976 28.3455 40.106 28.7615 40.366C29.1948 40.6087 29.5328 40.9294 29.7755 41.328C30.0355 41.7267 30.2175 42.186 30.3215 42.706C30.4255 43.226 30.4775 43.7547 30.4775 44.292C30.4775 44.8294 30.4255 45.358 30.3215 45.878C30.2175 46.3807 30.0355 46.84 29.7755 47.256C29.5328 47.6547 29.1948 47.9754 28.7615 48.218C28.3455 48.4607 27.8255 48.582 27.2015 48.582C26.5775 48.582 26.0575 48.4607 25.6415 48.218C25.2255 47.9754 24.8875 47.6547 24.6275 47.256C24.3848 46.84 24.2115 46.3807 24.1075 45.878C24.0035 45.358 23.9515 44.8294 23.9515 44.292ZM20.2595 44.292C20.2595 45.3667 20.4242 46.3374 20.7535 47.204C21.0828 48.0707 21.5508 48.816 22.1575 49.44C22.7642 50.0467 23.4922 50.5147 24.3415 50.844C25.1908 51.1734 26.1442 51.338 27.2015 51.338C28.2588 51.338 29.2122 51.1734 30.0615 50.844C30.9282 50.5147 31.6648 50.0467 32.2715 49.44C32.8782 48.816 33.3462 48.0707 33.6755 47.204C34.0048 46.3374 34.1695 45.3667 34.1695 44.292C34.1695 43.2174 34.0048 42.2467 33.6755 41.38C33.3462 40.496 32.8782 39.7507 32.2715 39.144C31.6648 38.52 30.9282 38.0434 30.0615 37.714C29.2122 37.3674 28.2588 37.194 27.2015 37.194C26.1442 37.194 25.1908 37.3674 24.3415 37.714C23.4922 38.0434 22.7642 38.52 22.1575 39.144C21.5508 39.7507 21.0828 40.496 20.7535 41.38C20.4242 42.2467 20.2595 43.2174 20.2595 44.292Z" fill="white"/>
<path d="M49.18 51V37.558H45.488V44.604C45.488 45.9734 45.2627 46.9614 44.812 47.568C44.3614 48.1574 43.6334 48.452 42.628 48.452C41.744 48.452 41.1287 48.1834 40.782 47.646C40.4354 47.0914 40.262 46.2594 40.262 45.15V37.558H36.57V45.826C36.57 46.658 36.6394 47.4207 36.778 48.114C36.934 48.79 37.194 49.3707 37.558 49.856C37.922 50.324 38.416 50.688 39.04 50.948C39.6814 51.208 40.496 51.338 41.484 51.338C42.264 51.338 43.0267 51.1647 43.772 50.818C44.5174 50.4714 45.124 49.908 45.592 49.128H45.67V51H49.18Z" fill="white"/>
<path d="M51.9821 37.558V51H55.6741V43.954C55.6741 42.5847 55.8995 41.6054 56.3501 41.016C56.8008 40.4094 57.5288 40.106 58.5341 40.106C59.4181 40.106 60.0335 40.3834 60.3801 40.938C60.7268 41.4754 60.9001 42.2987 60.9001 43.408V51H64.5921V42.732C64.5921 41.9 64.5141 41.146 64.3581 40.47C64.2195 39.7767 63.9681 39.196 63.6041 38.728C63.2401 38.2427 62.7375 37.87 62.0961 37.61C61.4721 37.3327 60.6661 37.194 59.6781 37.194C58.8981 37.194 58.1355 37.376 57.3901 37.74C56.6448 38.0867 56.0381 38.65 55.5701 39.43H55.4921V37.558H51.9821Z" fill="white"/>
<path d="M76.5462 42.29H80.1602C80.1082 41.4234 79.9002 40.678 79.5362 40.054C79.1722 39.4127 78.6956 38.884 78.1062 38.468C77.5342 38.0347 76.8756 37.714 76.1302 37.506C75.4022 37.298 74.6396 37.194 73.8422 37.194C72.7502 37.194 71.7796 37.376 70.9302 37.74C70.0809 38.104 69.3616 38.6154 68.7722 39.274C68.1829 39.9154 67.7322 40.6867 67.4202 41.588C67.1256 42.472 66.9782 43.434 66.9782 44.474C66.9782 45.4794 67.1429 46.4067 67.4722 47.256C67.8016 48.088 68.2609 48.8074 68.8502 49.414C69.4396 50.0207 70.1502 50.4974 70.9822 50.844C71.8316 51.1734 72.7589 51.338 73.7642 51.338C75.5496 51.338 77.0142 50.87 78.1582 49.934C79.3022 48.998 79.9956 47.6374 80.2382 45.852H76.6762C76.5549 46.684 76.2516 47.3514 75.7662 47.854C75.2982 48.3394 74.6222 48.582 73.7382 48.582C73.1662 48.582 72.6809 48.452 72.2822 48.192C71.8836 47.932 71.5629 47.6027 71.3202 47.204C71.0949 46.788 70.9302 46.3287 70.8262 45.826C70.7222 45.3234 70.6702 44.8294 70.6702 44.344C70.6702 43.8414 70.7222 43.3387 70.8262 42.836C70.9302 42.316 71.1036 41.848 71.3462 41.432C71.6062 40.9987 71.9356 40.652 72.3342 40.392C72.7329 40.1147 73.2269 39.976 73.8162 39.976C75.3936 39.976 76.3036 40.7474 76.5462 42.29Z" fill="white"/>
<path d="M86.1199 35.478V32.436H82.4279V35.478H86.1199ZM82.4279 37.558V51H86.1199V37.558H82.4279Z" fill="white"/>
<path d="M89.1311 32.436V51H92.8231V32.436H89.1311Z" fill="white"/>
</svg>
