<svg width="20" height="20" viewBox="0 0 20 20" fill="none" xmlns="http://www.w3.org/2000/svg">
<path fill-rule="evenodd" clip-rule="evenodd" d="M4.73633 8.15387C4.73633 3.95022 8.09466 0.5 12.2893 0.5C16.484 0.5 19.8424 3.95022 19.8424 8.15387C19.8424 12.3575 16.484 15.8077 12.2893 15.8077C8.09466 15.8077 4.73633 12.3575 4.73633 8.15387ZM12.2893 3.5C9.79806 3.5 7.73633 5.56015 7.73633 8.15387C7.73633 10.7476 9.79806 12.8077 12.2893 12.8077C14.7806 12.8077 16.8424 10.7476 16.8424 8.15387C16.8424 5.56015 14.7806 3.5 12.2893 3.5Z" fill="white"/>
<path fill-rule="evenodd" clip-rule="evenodd" d="M8.89154 13.0881L2.16417 19.9276L0.0253906 17.8238L6.75276 10.9844L8.89154 13.0881Z" fill="white"/>
</svg>
